<svg width="15" height="15" viewBox="0 0 15 15" fill="none" xmlns="http://www.w3.org/2000/svg">
<g clip-path="url(#clip0_128_22)">
<path d="M13.8316 11.9906L8.47147 14.4141C8.141 14.5699 7.79647 14.5547 7.48006 14.3719L0.713658 10.9359C0.520299 10.8117 0.462877 10.6301 0.474596 10.5035C0.486315 10.377 0.515611 10.2398 0.855455 10.1414L1.35702 9.95625L8.14452 13.6559L12.968 11.6848L13.8316 11.9906Z" fill="#01579B"/>
<path d="M8.40708 14.0262C8.27305 14.0891 8.12596 14.1191 7.97801 14.1138C7.83006 14.1085 7.68549 14.068 7.5563 13.9957L0.950443 10.6676C0.856693 10.616 0.828568 10.4977 0.884818 10.4063C1.03013 10.166 1.29732 9.40664 0.856693 8.77617L8.31685 12.368L8.40708 14.0262Z" fill="#F5F5F5"/>
<path d="M13.5457 11.7164L8.40701 14.0262C8.23708 14.1 7.89841 14.2312 7.50818 13.9687C7.81638 13.991 8.03318 13.8633 8.14451 13.6559C8.25349 13.4543 8.22068 13.1238 8.08826 12.9375C8.0074 12.825 7.7906 12.6457 7.69568 12.5449L13.2539 10.3711C13.7461 10.1684 14.2078 10.4719 14.2816 10.841C14.3636 11.2582 13.8316 11.5992 13.5457 11.7164Z" fill="#94C6D6"/>
<path d="M13.8023 10.1906L8.49724 12.5578C8.16325 12.6902 7.78942 12.6727 7.4695 12.5109L0.691377 9.06797C0.625752 9.03516 0.528487 8.94492 0.489815 8.82188C0.426533 8.6168 0.506221 8.35899 0.746455 8.27695L8.09177 12.0211L13.1215 9.86836L13.8023 10.1906Z" fill="#01579B"/>
<path d="M14.202 10.534L13.6242 10.3242L12.4336 10.3934L8.49844 12.15C8.16446 12.2824 7.79063 12.2648 7.47071 12.1031L0.69141 8.66133C0.5168 8.57227 0.5543 8.31328 0.746488 8.27695L5.63204 6.09141C5.77149 6.06563 5.91446 6.08086 6.04454 6.13594L13.016 9.45938C13.016 9.45938 14.1234 10.2176 14.202 10.534Z" fill="#0091EA"/>
<path d="M12.3667 10.4273C12.3667 10.4273 13.1003 10.1402 13.6769 10.166C14.2535 10.1918 14.4539 10.5961 14.4539 10.5961C14.3449 10.1004 13.8328 9.84726 13.8328 9.84726L6.21558 6.01172C6.16284 5.98945 5.96831 5.94375 5.66948 6.0668C5.42808 6.16641 4.6394 6.53555 4.6394 6.53555L12.3667 10.4273Z" fill="#616161"/>
<path d="M14.4867 10.6898C14.4317 10.4707 14.2957 10.2363 14.0449 10.1227C13.7145 9.97383 13.2434 10.0125 12.9422 10.1695L12.3668 10.425V10.8305L13.0946 10.507C13.8024 10.1918 14.1164 10.6641 14.1434 10.7754C14.2559 11.2289 14.0379 11.4914 13.3946 11.7867L12.3492 12.2578V12.6656L13.5516 12.1301C14.0836 11.9168 14.6906 11.516 14.4867 10.6898Z" fill="#424242"/>
<path d="M3.86831 10.5832L1.84448 7.78594L2.16206 7.64414L4.43901 10.773L3.86831 10.5832ZM6.46401 11.8723L6.10308 11.5863L12.3667 10.3078V10.5129L11.489 10.8457L6.46401 11.8723Z" fill="#01579B"/>
<path d="M1.73438 5.41172L9.6457 4.08984L13.1016 7.89492C13.2762 8.07891 13.1813 8.38359 12.9328 8.43398L4.76484 10.1098L1.73438 5.41172Z" fill="#9CCC65"/>
<path d="M12.9328 8.10586L4.82107 9.74883L4.79529 10.1355L12.9328 8.4668C13.1625 8.41875 13.2586 8.15625 13.1332 7.97109C13.0886 8.03672 13.0207 8.08828 12.9328 8.10586ZM13.3699 9.87891C13.4554 10.0148 13.3781 10.1941 13.2211 10.2258L5.75388 11.7398C5.30505 11.8324 4.86443 11.5383 4.82458 11.0812C4.7906 10.6945 5.05193 10.3441 5.43279 10.2645L12.614 8.65195L13.3699 9.87891Z" fill="#689F38"/>
<path d="M6.5145 9.38672L3.54028 5.13047L1.8434 5.5793C1.45082 5.96953 1.59731 6.61055 1.59731 6.61055C1.59731 6.61055 4.19536 10.7801 4.60551 11.3133C5.01567 11.8465 5.6145 11.7633 5.6145 11.7633L6.62582 11.5594L6.52036 9.67266L6.5145 9.38672Z" fill="#616161"/>
<path d="M6.51441 9.41484L5.08589 9.71016C4.69566 9.79805 4.62534 10.1648 4.62534 10.1648L1.17651 5.22305C1.17651 5.22305 0.685499 5.81719 1.01128 6.32226L4.60542 11.3133C4.998 11.8723 5.61441 11.768 5.61441 11.768L6.62573 11.5641L6.52144 9.71484L6.51441 9.41484Z" fill="#424242"/>
<path d="M12.9199 9.72656C12.9562 9.80625 12.9094 9.89883 12.8238 9.91641L5.68359 11.3812C5.23476 11.4738 4.91718 11.1762 4.93359 10.7707C4.95468 10.2586 5.24179 10.0418 5.62148 9.96328L12.7969 8.49726C12.7969 8.49726 12.5531 8.77148 12.7394 9.28477C12.8027 9.46172 12.8707 9.61875 12.9199 9.72656Z" fill="#B9E4EA"/>
<path d="M5.29805 9.80859L2.23828 5.47969" stroke="#424242" stroke-width="2.071" stroke-miterlimit="10"/>
<path d="M5.53826 7.96289L1.6031 5.98008L1.44373 6.29414L5.9906 8.61094L5.53826 7.96289Z" fill="#424242"/>
<path d="M12.7489 7.50352L12.4606 7.18711L8.02739 9.22149L5.53833 7.98985L5.96255 8.59688L7.61138 9.43945L8.8395 9.25078L12.7489 7.50352Z" fill="#689F38"/>
<path d="M13.8305 6.7207L8.47147 9.14414C8.141 9.3 7.79647 9.28476 7.48006 9.10195L0.713658 5.66601C0.520299 5.5418 0.462877 5.36015 0.474596 5.23359C0.486315 5.10703 0.515611 4.96992 0.855455 4.87148L1.17303 4.7543L8.1246 8.16562L13.7695 5.83008L13.8305 6.7207Z" fill="#C62828"/>
<path d="M8.40586 8.75625C8.27183 8.81913 8.12474 8.84916 7.97679 8.84386C7.82884 8.83856 7.68427 8.79808 7.55508 8.72578L0.949223 5.39766C0.855473 5.34609 0.827347 5.22773 0.883597 5.13633C1.02891 4.89609 1.2961 4.13672 0.855472 3.50625L8.14922 7.21641L8.40586 8.75625Z" fill="#F5F5F5"/>
<path d="M13.5446 6.44648L8.40591 8.75625C8.23599 8.83008 7.89731 8.96133 7.50708 8.69883C7.81528 8.72109 8.03208 8.59336 8.14341 8.38594C8.25239 8.18437 8.21958 7.85391 8.08716 7.66758C8.0063 7.55508 7.7895 7.37578 7.69458 7.275L13.2528 5.10117C13.745 4.89844 14.2067 5.20195 14.2805 5.57109C14.3625 5.98828 13.8305 6.3293 13.5446 6.44648Z" fill="#94C6D6"/>
<path d="M13.8024 4.92071L8.4973 7.28789C8.16331 7.42031 7.78948 7.40274 7.46956 7.24102L0.690265 3.79805C0.619953 3.76289 0.514484 3.67266 0.4805 3.54492C0.430109 3.35508 0.495734 3.10547 0.745343 3.00703L6.95745 1.69102L13.8024 4.92071Z" fill="#C62828"/>
<path d="M14.2008 5.26406L13.6231 5.0543L12.4325 5.12344L8.49731 6.88008C8.16333 7.0125 7.7895 6.99492 7.46958 6.83321L0.690281 3.39024C0.515671 3.30117 0.577781 3.06563 0.745359 3.00586L5.63208 0.821486C5.77153 0.795705 5.9145 0.810939 6.04458 0.866018L13.0161 4.18946C13.0161 4.18946 14.1223 4.94649 14.2008 5.26406Z" fill="#F44336"/>
<path d="M12.3668 5.15625C12.3668 5.15625 12.9773 4.9418 13.5539 4.96758C14.1305 4.99336 14.4551 5.325 14.4551 5.325C14.3367 4.79531 13.834 4.57617 13.834 4.57617L6.2168 0.740626C6.16406 0.71836 5.96953 0.672657 5.6707 0.795704C5.4293 0.895314 4.64062 1.26445 4.64062 1.26445L12.3668 5.15625Z" fill="#616161"/>
<path d="M13.064 4.90547L5.2699 0.973827L5.52771 0.857811L13.4543 4.83047L13.064 4.90547Z" fill="#424242"/>
<path d="M14.4855 5.41992C14.4304 5.20078 14.3379 4.98867 14.0765 4.87852C13.7426 4.73789 13.4379 4.70859 12.941 4.89961L12.3656 5.15508V5.56055L13.0933 5.23711C13.4625 5.06367 14.0062 5.10117 14.1422 5.50547C14.291 5.94844 14.0367 6.22149 13.3933 6.5168L12.348 6.98789V7.3957L13.5504 6.86016C14.0836 6.64688 14.6906 6.24609 14.4855 5.41992Z" fill="#424242"/>
</g>
<defs>
<clipPath id="clip0_128_22">
<rect width="15" height="15" fill="white"/>
</clipPath>
</defs>
</svg>
