<svg width="15" height="18" viewBox="0 0 15 18" fill="none" xmlns="http://www.w3.org/2000/svg">
<path d="M13.3333 4.28571H11.6667C11.6667 1.88571 9.83333 0 7.5 0C5.16667 0 3.33333 1.88571 3.33333 4.28571H1.66667C0.75 4.28571 0 5.05714 0 6V16.2857C0 17.2286 0.75 18 1.66667 18H13.3333C14.25 18 15 17.2286 15 16.2857V6C15 5.05714 14.25 4.28571 13.3333 4.28571ZM7.5 1.71429C8.91667 1.71429 10 2.82857 10 4.28571H5C5 2.82857 6.08333 1.71429 7.5 1.71429ZM13.3333 16.2857H1.66667V6H13.3333V16.2857ZM7.5 9.42857C6.08333 9.42857 5 8.31429 5 6.85714H3.33333C3.33333 9.25714 5.16667 11.1429 7.5 11.1429C9.83333 11.1429 11.6667 9.25714 11.6667 6.85714H10C10 8.31429 8.91667 9.42857 7.5 9.42857Z" fill="white"/>
</svg>