<svg width="7" height="7" viewBox="0 0 7 7" fill="none" xmlns="http://www.w3.org/2000/svg">
<g clip-path="url(#clip0_128_356)">
<path d="M5.54167 0.583344C5.69638 0.583344 5.84475 0.644802 5.95415 0.754198C6.06354 0.863594 6.125 1.01197 6.125 1.16668V4.66668C6.125 4.82139 6.06354 4.96976 5.95415 5.07916C5.84475 5.18855 5.69638 5.25001 5.54167 5.25001H4.95833V5.83334C4.95833 5.98805 4.89687 6.13643 4.78748 6.24582C4.67808 6.35522 4.52971 6.41668 4.375 6.41668H1.45833C1.30362 6.41668 1.15525 6.35522 1.04585 6.24582C0.936458 6.13643 0.875 5.98805 0.875 5.83334V2.33334C0.875 2.17863 0.936458 2.03026 1.04585 1.92086C1.15525 1.81147 1.30362 1.75001 1.45833 1.75001H2.04167V1.16668C2.04167 1.01197 2.10312 0.863594 2.21252 0.754198C2.32192 0.644802 2.47029 0.583344 2.625 0.583344H5.54167ZM2.91667 4.37501H2.33333C2.25899 4.37509 2.18749 4.40356 2.13343 4.45459C2.07938 4.50562 2.04685 4.57537 2.04249 4.64958C2.03813 4.7238 2.06228 4.79687 2.10999 4.85388C2.15771 4.91088 2.22539 4.94752 2.29921 4.9563L2.33333 4.95834H2.91667C2.99101 4.95826 3.06251 4.9298 3.11657 4.87876C3.17062 4.82773 3.20315 4.75798 3.20751 4.68377C3.21187 4.60956 3.18772 4.53648 3.14001 4.47948C3.09229 4.42247 3.02461 4.38583 2.95079 4.37705L2.91667 4.37501ZM5.54167 1.16668H2.625V1.75001H4.375C4.52971 1.75001 4.67808 1.81147 4.78748 1.92086C4.89687 2.03026 4.95833 2.17863 4.95833 2.33334V4.66668H5.54167V1.16668ZM3.5 3.20834H2.33333C2.25598 3.20834 2.18179 3.23907 2.12709 3.29377C2.0724 3.34847 2.04167 3.42266 2.04167 3.50001C2.04167 3.57736 2.0724 3.65155 2.12709 3.70625C2.18179 3.76095 2.25598 3.79168 2.33333 3.79168H3.5C3.57735 3.79168 3.65154 3.76095 3.70624 3.70625C3.76094 3.65155 3.79167 3.57736 3.79167 3.50001C3.79167 3.42266 3.76094 3.34847 3.70624 3.29377C3.65154 3.23907 3.57735 3.20834 3.5 3.20834Z" fill="#C8C8C8"/>
</g>
<defs>
<clipPath id="clip0_128_356">
<rect width="7" height="7" fill="white"/>
</clipPath>
</defs>
</svg>
