<svg width="11" height="7" viewBox="0 0 11 7" fill="none" xmlns="http://www.w3.org/2000/svg">
<path fill-rule="evenodd" clip-rule="evenodd" d="M6.0008 6.12581C5.86796 6.2586 5.68783 6.3332 5.5 6.3332C5.31218 6.3332 5.13204 6.2586 4.99921 6.12581L0.992171 2.11877C0.924518 2.05343 0.870555 1.97527 0.833432 1.88885C0.796309 1.80243 0.776769 1.70948 0.775951 1.61543C0.775134 1.52138 0.793056 1.4281 0.828672 1.34105C0.864288 1.254 0.916884 1.17491 0.983391 1.10841C1.0499 1.0419 1.12898 0.989303 1.21604 0.953687C1.30309 0.918071 1.39636 0.900149 1.49041 0.900967C1.58447 0.901784 1.67741 0.921324 1.76383 0.958447C1.85025 0.99557 1.92841 1.04953 1.99375 1.11719L5.5 4.62344L9.00625 1.11719C9.13985 0.988157 9.31877 0.916761 9.5045 0.918375C9.69022 0.919989 9.86788 0.994483 9.99921 1.12581C10.1305 1.25714 10.205 1.4348 10.2066 1.62053C10.2083 1.80625 10.1369 1.98518 10.0078 2.11877L6.0008 6.12581Z" fill="white"/>
</svg>
