<svg width="14" height="16" viewBox="0 0 14 16" fill="none" xmlns="http://www.w3.org/2000/svg">
<path d="M12.25 0.5C12.6478 0.5 13.0294 0.658035 13.3107 0.93934C13.592 1.22064 13.75 1.60218 13.75 2V11C13.75 11.3978 13.592 11.7794 13.3107 12.0607C13.0294 12.342 12.6478 12.5 12.25 12.5H10.75V14C10.75 14.3978 10.592 14.7794 10.3107 15.0607C10.0294 15.342 9.64782 15.5 9.25 15.5H1.75C1.35218 15.5 0.970644 15.342 0.68934 15.0607C0.408035 14.7794 0.25 14.3978 0.25 14V5C0.25 4.60217 0.408035 4.22064 0.68934 3.93934C0.970644 3.65804 1.35218 3.5 1.75 3.5H3.25V2C3.25 1.60218 3.40804 1.22064 3.68934 0.93934C3.97064 0.658035 4.35218 0.5 4.75 0.5H12.25ZM5.5 10.25H4C3.80884 10.2502 3.62498 10.3234 3.48597 10.4546C3.34697 10.5859 3.26332 10.7652 3.25212 10.956C3.24092 11.1469 3.30301 11.3348 3.4257 11.4814C3.54839 11.628 3.72243 11.7222 3.91225 11.7447L4 11.75H5.5C5.69116 11.7498 5.87502 11.6766 6.01403 11.5454C6.15303 11.4141 6.23668 11.2348 6.24788 11.044C6.25908 10.8531 6.19699 10.6652 6.0743 10.5186C5.95161 10.372 5.77757 10.2778 5.58775 10.2552L5.5 10.25ZM12.25 2H4.75V3.5H9.25C9.64782 3.5 10.0294 3.65804 10.3107 3.93934C10.592 4.22064 10.75 4.60217 10.75 5V11H12.25V2ZM7 7.25H4C3.80109 7.25 3.61032 7.32902 3.46967 7.46967C3.32902 7.61032 3.25 7.80109 3.25 8C3.25 8.19891 3.32902 8.38968 3.46967 8.53033C3.61032 8.67098 3.80109 8.75 4 8.75H7C7.19891 8.75 7.38968 8.67098 7.53033 8.53033C7.67098 8.38968 7.75 8.19891 7.75 8C7.75 7.80109 7.67098 7.61032 7.53033 7.46967C7.38968 7.32902 7.19891 7.25 7 7.25Z" fill="white"/>
</svg>
