<svg width="14" height="12" viewBox="0 0 14 12" fill="none" xmlns="http://www.w3.org/2000/svg">
<path d="M2.20715 5.39374L7.01126 10.1836L11.8154 5.39374C12.2401 4.97026 12.4787 4.39589 12.4787 3.79699C12.4787 3.19809 12.2401 2.62372 11.8154 2.20023C11.6051 1.99054 11.3554 1.82421 11.0806 1.71073C10.8058 1.59724 10.5113 1.53884 10.2139 1.53884C9.61319 1.53884 9.03712 1.77675 8.61237 2.20023L7.01126 3.79661L5.41014 2.20099C4.98431 1.78318 4.41015 1.55007 3.81273 1.55242C3.2153 1.55478 2.64301 1.79241 2.22051 2.21356C1.79801 2.63471 1.55954 3.20525 1.55704 3.80091C1.55453 4.39657 1.7882 4.96908 2.20715 5.39374ZM6.47755 1.13523L7.01126 1.66735L7.54496 1.13523C7.89489 0.783264 8.3111 0.503679 8.7697 0.312524C9.22829 0.121368 9.72024 0.0224069 10.2173 0.0213217C10.7143 0.0202365 11.2067 0.117049 11.6662 0.3062C12.1256 0.495351 12.543 0.773116 12.8945 1.12355C13.246 1.47398 13.5246 1.89018 13.7143 2.34825C13.904 2.80632 14.0011 3.29724 14 3.79282C13.9989 4.28841 13.8996 4.7789 13.7079 5.23613C13.5162 5.69337 13.2358 6.10835 12.8828 6.45724L7.54572 11.7793C7.47561 11.8492 7.39235 11.9048 7.30071 11.9426C7.20907 11.9805 7.11084 12 7.01163 12C6.91243 12 6.8142 11.9805 6.72256 11.9426C6.63091 11.9048 6.54766 11.8492 6.47755 11.7793L1.13974 6.45799C0.781926 6.11022 0.496938 5.69508 0.301303 5.23663C0.105667 4.77819 0.00327903 4.28558 7.74784e-05 3.78738C-0.00312407 3.28918 0.0929247 2.7953 0.282652 2.3344C0.47238 1.87349 0.752009 1.45474 1.10532 1.10242C1.45863 0.75011 1.87859 0.471249 2.34083 0.282018C2.80308 0.0927866 3.29841 -0.00304773 3.79809 7.38763e-05C4.29777 0.00319549 4.79186 0.105211 5.25169 0.300202C5.71152 0.495194 6.12794 0.77928 6.47679 1.13598L6.47755 1.13523Z" fill="#C6C6C6"/>
</svg>
