<svg width="281" height="74" viewBox="0 0 281 74" fill="none" xmlns="http://www.w3.org/2000/svg">
<path d="M13 0L16.4641 9H9.5359L13 0Z" fill="#626262"/>
<!-- <path d="M13.912 21.424V27H13.184V24.472H10.344V27H9.616V21.424H10.344V23.872H13.184V21.424H13.912ZM17.0671 27.072C16.6564 27.072 16.2831 26.9787 15.9471 26.792C15.6164 26.6053 15.3551 26.3413 15.1631 26C14.9764 25.6533 14.8831 25.2533 14.8831 24.8C14.8831 24.352 14.9791 23.9573 15.1711 23.616C15.3684 23.2693 15.6351 23.0053 15.9711 22.824C16.3071 22.6373 16.6831 22.544 17.0991 22.544C17.5151 22.544 17.8911 22.6373 18.2271 22.824C18.5631 23.0053 18.8271 23.2667 19.0191 23.608C19.2164 23.9493 19.3151 24.3467 19.3151 24.8C19.3151 25.2533 19.2137 25.6533 19.0111 26C18.8137 26.3413 18.5444 26.6053 18.2031 26.792C17.8617 26.9787 17.4831 27.072 17.0671 27.072ZM17.0671 26.432C17.3284 26.432 17.5737 26.3707 17.8031 26.248C18.0324 26.1253 18.2164 25.9413 18.3551 25.696C18.4991 25.4507 18.5711 25.152 18.5711 24.8C18.5711 24.448 18.5017 24.1493 18.3631 23.904C18.2244 23.6587 18.0431 23.4773 17.8191 23.36C17.5951 23.2373 17.3524 23.176 17.0911 23.176C16.8244 23.176 16.5791 23.2373 16.3551 23.36C16.1364 23.4773 15.9604 23.6587 15.8271 23.904C15.6937 24.1493 15.6271 24.448 15.6271 24.8C15.6271 25.1573 15.6911 25.4587 15.8191 25.704C15.9524 25.9493 16.1284 26.1333 16.3471 26.256C16.5657 26.3733 16.8057 26.432 17.0671 26.432ZM26.1123 22.616L24.7443 27H23.9923L22.9363 23.52L21.8803 27H21.1283L19.7523 22.616H20.4963L21.5043 26.296L22.5923 22.616H23.3363L24.4003 26.304L25.3923 22.616H26.1123ZM34.2396 22.536C34.5809 22.536 34.8849 22.608 35.1516 22.752C35.4182 22.8907 35.6289 23.1013 35.7836 23.384C35.9382 23.6667 36.0156 24.0107 36.0156 24.416V27H35.2956V24.52C35.2956 24.0827 35.1862 23.7493 34.9676 23.52C34.7542 23.2853 34.4636 23.168 34.0956 23.168C33.7169 23.168 33.4156 23.2907 33.1916 23.536C32.9676 23.776 32.8556 24.1253 32.8556 24.584V27H32.1356V24.52C32.1356 24.0827 32.0262 23.7493 31.8076 23.52C31.5942 23.2853 31.3036 23.168 30.9356 23.168C30.5569 23.168 30.2556 23.2907 30.0316 23.536C29.8076 23.776 29.6956 24.1253 29.6956 24.584V27H28.9676V22.616H29.6956V23.248C29.8396 23.0187 30.0316 22.8427 30.2716 22.72C30.5169 22.5973 30.7862 22.536 31.0796 22.536C31.4476 22.536 31.7729 22.6187 32.0556 22.784C32.3382 22.9493 32.5489 23.192 32.6876 23.512C32.8102 23.2027 33.0129 22.9627 33.2956 22.792C33.5782 22.6213 33.8929 22.536 34.2396 22.536ZM36.9378 24.792C36.9378 24.344 37.0284 23.952 37.2098 23.616C37.3911 23.2747 37.6391 23.0107 37.9538 22.824C38.2738 22.6373 38.6284 22.544 39.0178 22.544C39.4018 22.544 39.7351 22.6267 40.0178 22.792C40.3004 22.9573 40.5111 23.1653 40.6498 23.416V22.616H41.3858V27H40.6498V26.184C40.5058 26.44 40.2898 26.6533 40.0018 26.824C39.7191 26.9893 39.3884 27.072 39.0098 27.072C38.6204 27.072 38.2684 26.976 37.9538 26.784C37.6391 26.592 37.3911 26.3227 37.2098 25.976C37.0284 25.6293 36.9378 25.2347 36.9378 24.792ZM40.6498 24.8C40.6498 24.4693 40.5831 24.1813 40.4498 23.936C40.3164 23.6907 40.1351 23.504 39.9058 23.376C39.6818 23.2427 39.4338 23.176 39.1618 23.176C38.8898 23.176 38.6418 23.24 38.4178 23.368C38.1938 23.496 38.0151 23.6827 37.8818 23.928C37.7484 24.1733 37.6818 24.4613 37.6818 24.792C37.6818 25.128 37.7484 25.4213 37.8818 25.672C38.0151 25.9173 38.1938 26.1067 38.4178 26.24C38.6418 26.368 38.8898 26.432 39.1618 26.432C39.4338 26.432 39.6818 26.368 39.9058 26.24C40.1351 26.1067 40.3164 25.9173 40.4498 25.672C40.5831 25.4213 40.6498 25.1307 40.6498 24.8ZM44.752 22.536C45.2853 22.536 45.7173 22.6987 46.048 23.024C46.3787 23.344 46.544 23.808 46.544 24.416V27H45.824V24.52C45.824 24.0827 45.7147 23.7493 45.496 23.52C45.2773 23.2853 44.9787 23.168 44.6 23.168C44.216 23.168 43.9093 23.288 43.68 23.528C43.456 23.768 43.344 24.1173 43.344 24.576V27H42.616V22.616H43.344V23.24C43.488 23.016 43.6827 22.8427 43.928 22.72C44.1787 22.5973 44.4533 22.536 44.752 22.536ZM51.5092 22.616L48.8692 29.064H48.1172L48.9812 26.952L47.2132 22.616H48.0212L49.3972 26.168L50.7572 22.616H51.5092ZM53.665 21.352C54.193 21.352 54.6197 21.5013 54.945 21.8C55.2703 22.0987 55.433 22.4987 55.433 23C55.433 23.56 55.2597 23.976 54.913 24.248C54.5663 24.5147 54.097 24.648 53.505 24.648L53.481 25.408H52.849L52.817 24.144H53.049C53.577 24.144 53.9903 24.064 54.289 23.904C54.5877 23.744 54.737 23.4427 54.737 23C54.737 22.68 54.641 22.4267 54.449 22.24C54.257 22.0533 53.9983 21.96 53.673 21.96C53.3423 21.96 53.081 22.0507 52.889 22.232C52.7023 22.408 52.609 22.6507 52.609 22.96H51.921C51.921 22.64 51.993 22.36 52.137 22.12C52.281 21.8747 52.4837 21.6853 52.745 21.552C53.0117 21.4187 53.3183 21.352 53.665 21.352ZM53.161 27.048C53.0223 27.048 52.905 27 52.809 26.904C52.713 26.808 52.665 26.6907 52.665 26.552C52.665 26.4133 52.713 26.296 52.809 26.2C52.905 26.104 53.0223 26.056 53.161 26.056C53.2943 26.056 53.4063 26.104 53.497 26.2C53.593 26.296 53.641 26.4133 53.641 26.552C53.641 26.6907 53.593 26.808 53.497 26.904C53.4063 27 53.2943 27.048 53.161 27.048Z" fill="#DCDCDC"/> -->
<rect x="0.5" y="8.5" width="280" height="65" rx="9.5" stroke="#626262"/>
<!-- <rect x="9" y="39" width="263" height="23" rx="11.5" fill="#404040"/> -->
<!-- <path d="M24.842 49.712L23.816 53H23.252L22.46 50.39L21.668 53H21.104L20.072 49.712H20.63L21.386 52.472L22.202 49.712H22.76L23.558 52.478L24.302 49.712H24.842ZM25.9299 50.246C26.0259 50.058 26.1619 49.912 26.3379 49.808C26.5179 49.704 26.7359 49.652 26.9919 49.652V50.216H26.8479C26.2359 50.216 25.9299 50.548 25.9299 51.212V53H25.3839V49.712H25.9299V50.246ZM27.9042 49.178C27.8002 49.178 27.7122 49.142 27.6402 49.07C27.5682 48.998 27.5322 48.91 27.5322 48.806C27.5322 48.702 27.5682 48.614 27.6402 48.542C27.7122 48.47 27.8002 48.434 27.9042 48.434C28.0042 48.434 28.0882 48.47 28.1562 48.542C28.2282 48.614 28.2642 48.702 28.2642 48.806C28.2642 48.91 28.2282 48.998 28.1562 49.07C28.0882 49.142 28.0042 49.178 27.9042 49.178ZM28.1682 49.712V53H27.6222V49.712H28.1682ZM29.7647 50.162V52.1C29.7647 52.26 29.7987 52.374 29.8667 52.442C29.9347 52.506 30.0527 52.538 30.2207 52.538H30.6227V53H30.1307C29.8267 53 29.5987 52.93 29.4467 52.79C29.2947 52.65 29.2187 52.42 29.2187 52.1V50.162H28.7927V49.712H29.2187V48.884H29.7647V49.712H30.6227V50.162H29.7647ZM34.2843 51.23C34.2843 51.334 34.2783 51.444 34.2663 51.56H31.6383C31.6583 51.884 31.7683 52.138 31.9683 52.322C32.1723 52.502 32.4183 52.592 32.7063 52.592C32.9423 52.592 33.1383 52.538 33.2943 52.43C33.4543 52.318 33.5663 52.17 33.6303 51.986H34.2183C34.1303 52.302 33.9543 52.56 33.6903 52.76C33.4263 52.956 33.0983 53.054 32.7063 53.054C32.3943 53.054 32.1143 52.984 31.8663 52.844C31.6223 52.704 31.4303 52.506 31.2903 52.25C31.1503 51.99 31.0803 51.69 31.0803 51.35C31.0803 51.01 31.1483 50.712 31.2843 50.456C31.4203 50.2 31.6103 50.004 31.8543 49.868C32.1023 49.728 32.3863 49.658 32.7063 49.658C33.0183 49.658 33.2943 49.726 33.5343 49.862C33.7743 49.998 33.9583 50.186 34.0863 50.426C34.2183 50.662 34.2843 50.93 34.2843 51.23ZM33.7203 51.116C33.7203 50.908 33.6743 50.73 33.5823 50.582C33.4903 50.43 33.3643 50.316 33.2043 50.24C33.0483 50.16 32.8743 50.12 32.6823 50.12C32.4063 50.12 32.1703 50.208 31.9743 50.384C31.7823 50.56 31.6723 50.804 31.6443 51.116H33.7203ZM39.4366 49.712L37.4566 54.548H36.8926L37.5406 52.964L36.2146 49.712H36.8206L37.8526 52.376L38.8726 49.712H39.4366ZM41.4194 53.054C41.1114 53.054 40.8314 52.984 40.5794 52.844C40.3314 52.704 40.1354 52.506 39.9914 52.25C39.8514 51.99 39.7814 51.69 39.7814 51.35C39.7814 51.014 39.8534 50.718 39.9974 50.462C40.1454 50.202 40.3454 50.004 40.5974 49.868C40.8494 49.728 41.1314 49.658 41.4434 49.658C41.7554 49.658 42.0374 49.728 42.2894 49.868C42.5414 50.004 42.7394 50.2 42.8834 50.456C43.0314 50.712 43.1054 51.01 43.1054 51.35C43.1054 51.69 43.0294 51.99 42.8774 52.25C42.7294 52.506 42.5274 52.704 42.2714 52.844C42.0154 52.984 41.7314 53.054 41.4194 53.054ZM41.4194 52.574C41.6154 52.574 41.7994 52.528 41.9714 52.436C42.1434 52.344 42.2814 52.206 42.3854 52.022C42.4934 51.838 42.5474 51.614 42.5474 51.35C42.5474 51.086 42.4954 50.862 42.3914 50.678C42.2874 50.494 42.1514 50.358 41.9834 50.27C41.8154 50.178 41.6334 50.132 41.4374 50.132C41.2374 50.132 41.0534 50.178 40.8854 50.27C40.7214 50.358 40.5894 50.494 40.4894 50.678C40.3894 50.862 40.3394 51.086 40.3394 51.35C40.3394 51.618 40.3874 51.844 40.4834 52.028C40.5834 52.212 40.7154 52.35 40.8794 52.442C41.0434 52.53 41.2234 52.574 41.4194 52.574ZM46.7393 49.712V53H46.1933V52.514C46.0893 52.682 45.9433 52.814 45.7553 52.91C45.5713 53.002 45.3673 53.048 45.1433 53.048C44.8873 53.048 44.6573 52.996 44.4533 52.892C44.2493 52.784 44.0873 52.624 43.9673 52.412C43.8513 52.2 43.7933 51.942 43.7933 51.638V49.712H44.3333V51.566C44.3333 51.89 44.4153 52.14 44.5793 52.316C44.7433 52.488 44.9673 52.574 45.2513 52.574C45.5433 52.574 45.7733 52.484 45.9413 52.304C46.1093 52.124 46.1933 51.862 46.1933 51.518V49.712H46.7393ZM48.2072 50.246C48.3032 50.058 48.4392 49.912 48.6152 49.808C48.7952 49.704 49.0132 49.652 49.2692 49.652V50.216H49.1252C48.5132 50.216 48.2072 50.548 48.2072 51.212V53H47.6612V49.712H48.2072V50.246ZM51.2951 51.344C51.2951 51.008 51.3631 50.714 51.4991 50.462C51.6351 50.206 51.8211 50.008 52.0571 49.868C52.2971 49.728 52.5631 49.658 52.8551 49.658C53.1431 49.658 53.3931 49.72 53.6051 49.844C53.8171 49.968 53.9751 50.124 54.0791 50.312V49.712H54.6311V53H54.0791V52.388C53.9711 52.58 53.8091 52.74 53.5931 52.868C53.3811 52.992 53.1331 53.054 52.8491 53.054C52.5571 53.054 52.2931 52.982 52.0571 52.838C51.8211 52.694 51.6351 52.492 51.4991 52.232C51.3631 51.972 51.2951 51.676 51.2951 51.344ZM54.0791 51.35C54.0791 51.102 54.0291 50.886 53.9291 50.702C53.8291 50.518 53.6931 50.378 53.5211 50.282C53.3531 50.182 53.1671 50.132 52.9631 50.132C52.7591 50.132 52.5731 50.18 52.4051 50.276C52.2371 50.372 52.1031 50.512 52.0031 50.696C51.9031 50.88 51.8531 51.096 51.8531 51.344C51.8531 51.596 51.9031 51.816 52.0031 52.004C52.1031 52.188 52.2371 52.33 52.4051 52.43C52.5731 52.526 52.7591 52.574 52.9631 52.574C53.1671 52.574 53.3531 52.526 53.5211 52.43C53.6931 52.33 53.8291 52.188 53.9291 52.004C54.0291 51.816 54.0791 51.598 54.0791 51.35ZM57.1558 49.652C57.5558 49.652 57.8798 49.774 58.1278 50.018C58.3758 50.258 58.4998 50.606 58.4998 51.062V53H57.9598V51.14C57.9598 50.812 57.8778 50.562 57.7138 50.39C57.5498 50.214 57.3258 50.126 57.0418 50.126C56.7538 50.126 56.5238 50.216 56.3518 50.396C56.1838 50.576 56.0998 50.838 56.0998 51.182V53H55.5538V49.712H56.0998V50.18C56.2078 50.012 56.3538 49.882 56.5378 49.79C56.7258 49.698 56.9318 49.652 57.1558 49.652ZM60.5557 53.054C60.3037 53.054 60.0777 53.012 59.8777 52.928C59.6777 52.84 59.5197 52.72 59.4037 52.568C59.2877 52.412 59.2237 52.234 59.2117 52.034H59.7757C59.7917 52.198 59.8677 52.332 60.0037 52.436C60.1437 52.54 60.3257 52.592 60.5497 52.592C60.7577 52.592 60.9217 52.546 61.0417 52.454C61.1617 52.362 61.2217 52.246 61.2217 52.106C61.2217 51.962 61.1577 51.856 61.0297 51.788C60.9017 51.716 60.7037 51.646 60.4357 51.578C60.1917 51.514 59.9917 51.45 59.8357 51.386C59.6837 51.318 59.5517 51.22 59.4397 51.092C59.3317 50.96 59.2777 50.788 59.2777 50.576C59.2777 50.408 59.3277 50.254 59.4277 50.114C59.5277 49.974 59.6697 49.864 59.8537 49.784C60.0377 49.7 60.2477 49.658 60.4837 49.658C60.8477 49.658 61.1417 49.75 61.3657 49.934C61.5897 50.118 61.7097 50.37 61.7257 50.69H61.1797C61.1677 50.518 61.0977 50.38 60.9697 50.276C60.8457 50.172 60.6777 50.12 60.4657 50.12C60.2697 50.12 60.1137 50.162 59.9977 50.246C59.8817 50.33 59.8237 50.44 59.8237 50.576C59.8237 50.684 59.8577 50.774 59.9257 50.846C59.9977 50.914 60.0857 50.97 60.1897 51.014C60.2977 51.054 60.4457 51.1 60.6337 51.152C60.8697 51.216 61.0617 51.28 61.2097 51.344C61.3577 51.404 61.4837 51.496 61.5877 51.62C61.6957 51.744 61.7517 51.906 61.7557 52.106C61.7557 52.286 61.7057 52.448 61.6057 52.592C61.5057 52.736 61.3637 52.85 61.1797 52.934C60.9997 53.014 60.7917 53.054 60.5557 53.054ZM66.9065 49.712L65.8805 53H65.3165L64.5245 50.39L63.7325 53H63.1685L62.1365 49.712H62.6945L63.4505 52.472L64.2665 49.712H64.8245L65.6225 52.478L66.3665 49.712H66.9065ZM70.4483 51.23C70.4483 51.334 70.4423 51.444 70.4303 51.56H67.8023C67.8223 51.884 67.9323 52.138 68.1323 52.322C68.3363 52.502 68.5823 52.592 68.8703 52.592C69.1063 52.592 69.3023 52.538 69.4583 52.43C69.6183 52.318 69.7303 52.17 69.7943 51.986H70.3823C70.2943 52.302 70.1183 52.56 69.8543 52.76C69.5903 52.956 69.2623 53.054 68.8703 53.054C68.5583 53.054 68.2783 52.984 68.0303 52.844C67.7863 52.704 67.5943 52.506 67.4543 52.25C67.3143 51.99 67.2443 51.69 67.2443 51.35C67.2443 51.01 67.3123 50.712 67.4483 50.456C67.5843 50.2 67.7743 50.004 68.0183 49.868C68.2663 49.728 68.5503 49.658 68.8703 49.658C69.1823 49.658 69.4583 49.726 69.6983 49.862C69.9383 49.998 70.1223 50.186 70.2503 50.426C70.3823 50.662 70.4483 50.93 70.4483 51.23ZM69.8843 51.116C69.8843 50.908 69.8383 50.73 69.7463 50.582C69.6543 50.43 69.5283 50.316 69.3683 50.24C69.2123 50.16 69.0383 50.12 68.8463 50.12C68.5703 50.12 68.3343 50.208 68.1383 50.384C67.9463 50.56 67.8363 50.804 67.8083 51.116H69.8843ZM71.715 50.246C71.811 50.058 71.947 49.912 72.123 49.808C72.303 49.704 72.521 49.652 72.777 49.652V50.216H72.633C72.021 50.216 71.715 50.548 71.715 51.212V53H71.169V49.712H71.715V50.246ZM76.6389 49.652C76.8869 49.652 77.1109 49.706 77.3109 49.814C77.5109 49.918 77.6669 50.076 77.7789 50.288C77.8949 50.5 77.9529 50.758 77.9529 51.062V53H77.4129V51.14C77.4129 50.812 77.3309 50.562 77.1669 50.39C77.0029 50.214 76.7789 50.126 76.4949 50.126C76.2069 50.126 75.9769 50.216 75.8049 50.396C75.6369 50.576 75.5529 50.838 75.5529 51.182V53H75.0069V48.56H75.5529V50.18C75.6609 50.012 75.8089 49.882 75.9969 49.79C76.1889 49.698 76.4029 49.652 76.6389 49.652ZM81.8448 51.23C81.8448 51.334 81.8388 51.444 81.8268 51.56H79.1988C79.2188 51.884 79.3288 52.138 79.5288 52.322C79.7328 52.502 79.9788 52.592 80.2668 52.592C80.5028 52.592 80.6988 52.538 80.8548 52.43C81.0148 52.318 81.1268 52.17 81.1908 51.986H81.7788C81.6908 52.302 81.5148 52.56 81.2508 52.76C80.9868 52.956 80.6588 53.054 80.2668 53.054C79.9548 53.054 79.6748 52.984 79.4268 52.844C79.1828 52.704 78.9908 52.506 78.8508 52.25C78.7108 51.99 78.6408 51.69 78.6408 51.35C78.6408 51.01 78.7088 50.712 78.8448 50.456C78.9808 50.2 79.1708 50.004 79.4148 49.868C79.6628 49.728 79.9468 49.658 80.2668 49.658C80.5788 49.658 80.8548 49.726 81.0948 49.862C81.3348 49.998 81.5188 50.186 81.6468 50.426C81.7788 50.662 81.8448 50.93 81.8448 51.23ZM81.2808 51.116C81.2808 50.908 81.2348 50.73 81.1428 50.582C81.0508 50.43 80.9248 50.316 80.7648 50.24C80.6088 50.16 80.4348 50.12 80.2428 50.12C79.9668 50.12 79.7308 50.208 79.5348 50.384C79.3428 50.56 79.2328 50.804 79.2048 51.116H81.2808ZM83.1115 50.246C83.2075 50.058 83.3435 49.912 83.5195 49.808C83.6995 49.704 83.9175 49.652 84.1735 49.652V50.216H84.0295C83.4175 50.216 83.1115 50.548 83.1115 51.212V53H82.5655V49.712H83.1115V50.246ZM87.8038 51.23C87.8038 51.334 87.7978 51.444 87.7858 51.56H85.1578C85.1778 51.884 85.2878 52.138 85.4878 52.322C85.6918 52.502 85.9378 52.592 86.2258 52.592C86.4618 52.592 86.6578 52.538 86.8138 52.43C86.9738 52.318 87.0858 52.17 87.1498 51.986H87.7378C87.6498 52.302 87.4738 52.56 87.2098 52.76C86.9458 52.956 86.6178 53.054 86.2258 53.054C85.9138 53.054 85.6338 52.984 85.3858 52.844C85.1418 52.704 84.9498 52.506 84.8098 52.25C84.6698 51.99 84.5998 51.69 84.5998 51.35C84.5998 51.01 84.6678 50.712 84.8038 50.456C84.9398 50.2 85.1298 50.004 85.3738 49.868C85.6218 49.728 85.9058 49.658 86.2258 49.658C86.5378 49.658 86.8138 49.726 87.0538 49.862C87.2938 49.998 87.4778 50.186 87.6058 50.426C87.7378 50.662 87.8038 50.93 87.8038 51.23ZM87.2398 51.116C87.2398 50.908 87.1938 50.73 87.1018 50.582C87.0098 50.43 86.8838 50.316 86.7238 50.24C86.5678 50.16 86.3938 50.12 86.2018 50.12C85.9258 50.12 85.6898 50.208 85.4938 50.384C85.3018 50.56 85.1918 50.804 85.1638 51.116H87.2398ZM88.6985 53.036C88.5945 53.036 88.5065 53 88.4345 52.928C88.3625 52.856 88.3265 52.768 88.3265 52.664C88.3265 52.56 88.3625 52.472 88.4345 52.4C88.5065 52.328 88.5945 52.292 88.6985 52.292C88.7985 52.292 88.8825 52.328 88.9505 52.4C89.0225 52.472 89.0585 52.56 89.0585 52.664C89.0585 52.768 89.0225 52.856 88.9505 52.928C88.8825 53 88.7985 53.036 88.6985 53.036ZM89.9583 53.036C89.8543 53.036 89.7663 53 89.6943 52.928C89.6223 52.856 89.5863 52.768 89.5863 52.664C89.5863 52.56 89.6223 52.472 89.6943 52.4C89.7663 52.328 89.8543 52.292 89.9583 52.292C90.0583 52.292 90.1423 52.328 90.2103 52.4C90.2823 52.472 90.3183 52.56 90.3183 52.664C90.3183 52.768 90.2823 52.856 90.2103 52.928C90.1423 53 90.0583 53.036 89.9583 53.036ZM91.218 53.036C91.114 53.036 91.026 53 90.954 52.928C90.882 52.856 90.846 52.768 90.846 52.664C90.846 52.56 90.882 52.472 90.954 52.4C91.026 52.328 91.114 52.292 91.218 52.292C91.318 52.292 91.402 52.328 91.47 52.4C91.542 52.472 91.578 52.56 91.578 52.664C91.578 52.768 91.542 52.856 91.47 52.928C91.402 53 91.318 53.036 91.218 53.036Z" fill="#909090"/> -->
</svg>
