<svg width="16" height="16" viewBox="0 0 16 16" fill="none" xmlns="http://www.w3.org/2000/svg">
<path fill-rule="evenodd" clip-rule="evenodd" d="M3.08767 2C2.96167 2 2.84933 2.08733 2.806 2.21867L2.03667 4.55567C2.01238 4.62957 2 4.70687 2 4.78467V5.71433C2 6.24 2.38367 6.66667 2.857 6.66667C3.33033 6.66667 3.71433 6.24 3.71433 5.71433C3.71433 6.24033 4.098 6.66667 4.57133 6.66667C5.04467 6.66667 5.42867 6.24 5.42867 5.71433C5.42867 6.24033 5.81233 6.66667 6.28567 6.66667C6.759 6.66667 7.14233 6.24067 7.143 5.715C7.143 6.24067 7.52667 6.66667 8 6.66667C8.47333 6.66667 8.857 6.24 8.857 5.71433C8.857 6.24033 9.241 6.66667 9.71433 6.66667C10.1877 6.66667 10.571 6.24067 10.5713 5.715C10.5717 6.24067 10.9553 6.66667 11.4287 6.66667C11.902 6.66667 12.2857 6.24 12.2857 5.71433C12.2857 6.24033 12.6693 6.66667 13.143 6.66667C13.6163 6.66667 14 6.24 14 5.71433V4.78467C14 4.70687 13.9876 4.62957 13.9633 4.55567L13.194 2.219C13.1507 2.08733 13.0383 2 12.9123 2H3.08767Z" fill="white"/>
<path fill-rule="evenodd" clip-rule="evenodd" d="M3.33337 7.07665V9.66665H2.50004C2.45584 9.66665 2.41345 9.68421 2.38219 9.71546C2.35093 9.74672 2.33337 9.78911 2.33337 9.83331V10.1666C2.33337 10.2108 2.35093 10.2532 2.38219 10.2845C2.41345 10.3158 2.45584 10.3333 2.50004 10.3333H13.5C13.5442 10.3333 13.5866 10.3158 13.6179 10.2845C13.6491 10.2532 13.6667 10.2108 13.6667 10.1666V9.83331C13.6667 9.78911 13.6491 9.74672 13.6179 9.71546C13.5866 9.68421 13.5442 9.66665 13.5 9.66665H12.6667V7.07665C12.5272 7.02104 12.3983 6.94176 12.2857 6.84231C12.1993 6.91853 12.1032 6.98308 12 7.03431V9.66665H4.00004V7.03431C3.89683 6.98308 3.80079 6.91853 3.71437 6.84231C3.60237 6.94065 3.47437 7.02065 3.33337 7.07665ZM12 6.42431C12.0284 6.39598 12.055 6.36565 12.08 6.33331H12V6.42431ZM12.4914 6.33331C12.5418 6.39861 12.6007 6.4568 12.6667 6.50631V6.33331H12.4914ZM3.33337 6.50631C3.39967 6.45718 3.4587 6.39894 3.50871 6.33331H3.33337V6.50631ZM3.92004 6.33331H4.00004V6.42431C3.97141 6.39577 3.94468 6.36537 3.92004 6.33331ZM2.83337 11C2.78917 11 2.74678 11.0175 2.71552 11.0488C2.68427 11.0801 2.66671 11.1224 2.66671 11.1666V13.6666C2.66671 13.7551 2.70183 13.8398 2.76434 13.9023C2.82685 13.9649 2.91164 14 3.00004 14H13C13.0884 14 13.1732 13.9649 13.2357 13.9023C13.2983 13.8398 13.3334 13.7551 13.3334 13.6666V11.1666C13.3334 11.1224 13.3158 11.0801 13.2846 11.0488C13.2533 11.0175 13.2109 11 13.1667 11H2.83337Z" fill="white"/>
<path d="M4.66663 8.83335C4.66663 8.78915 4.68419 8.74676 4.71544 8.7155C4.7467 8.68425 4.78909 8.66669 4.83329 8.66669H5.83329C5.8775 8.66669 5.91989 8.68425 5.95114 8.7155C5.9824 8.74676 5.99996 8.78915 5.99996 8.83335V9.50002C5.99996 9.54422 5.9824 9.58662 5.95114 9.61787C5.91989 9.64913 5.8775 9.66669 5.83329 9.66669H4.83329C4.78909 9.66669 4.7467 9.64913 4.71544 9.61787C4.68419 9.58662 4.66663 9.54422 4.66663 9.50002V8.83335Z" fill="white"/>
<path d="M5.33337 9.16669C5.33337 9.12248 5.35093 9.08009 5.38219 9.04884C5.41345 9.01758 5.45584 9.00002 5.50004 9.00002H6.50004C6.54424 9.00002 6.58664 9.01758 6.61789 9.04884C6.64915 9.08009 6.66671 9.12248 6.66671 9.16669V9.50002C6.66671 9.54422 6.64915 9.58662 6.61789 9.61787C6.58664 9.64913 6.54424 9.66669 6.50004 9.66669H5.50004C5.45584 9.66669 5.41345 9.64913 5.38219 9.61787C5.35093 9.58662 5.33337 9.54422 5.33337 9.50002V9.16669ZM8.00004 9.16669C8.00004 9.2993 7.94736 9.42647 7.85359 9.52024C7.75983 9.61401 7.63265 9.66669 7.50004 9.66669C7.36743 9.66669 7.24026 9.61401 7.14649 9.52024C7.05272 9.42647 7.00004 9.2993 7.00004 9.16669C7.00004 9.03408 7.05272 8.9069 7.14649 8.81313C7.24026 8.71937 7.36743 8.66669 7.50004 8.66669C7.63265 8.66669 7.75983 8.71937 7.85359 8.81313C7.94736 8.9069 8.00004 9.03408 8.00004 9.16669Z" fill="white"/>
</svg>
