<svg width="12" height="15" viewBox="0 0 12 15" fill="none" xmlns="http://www.w3.org/2000/svg">
<path d="M10.6667 3.57143H9.33333C9.33333 1.57143 7.86667 0 6 0C4.13333 0 2.66667 1.57143 2.66667 3.57143H1.33333C0.6 3.57143 0 4.21429 0 5V13.5714C0 14.3571 0.6 15 1.33333 15H10.6667C11.4 15 12 14.3571 12 13.5714V5C12 4.21429 11.4 3.57143 10.6667 3.57143ZM6 1.42857C7.13333 1.42857 8 2.35714 8 3.57143H4C4 2.35714 4.86667 1.42857 6 1.42857ZM10.6667 13.5714H1.33333V5H10.6667V13.5714ZM6 7.85714C4.86667 7.85714 4 6.92857 4 5.71429H2.66667C2.66667 7.71429 4.13333 9.28571 6 9.28571C7.86667 9.28571 9.33333 7.71429 9.33333 5.71429H8C8 6.92857 7.13333 7.85714 6 7.85714Z" fill="white"/>
</svg>
