<svg width="14" height="9" viewBox="0 0 14 9" fill="none" xmlns="http://www.w3.org/2000/svg">
<path fill-rule="evenodd" clip-rule="evenodd" d="M8.90145 6.96023C8.83698 7.00845 8.78526 7.0666 8.7494 7.13121C8.71353 7.19582 8.69424 7.26557 8.69269 7.33629C8.69113 7.40701 8.70734 7.47726 8.74035 7.54285C8.77335 7.60843 8.82248 7.66801 8.8848 7.71803C8.94711 7.76804 9.02134 7.80747 9.10306 7.83396C9.18477 7.86046 9.2723 7.87347 9.36041 7.87222C9.44853 7.87097 9.53543 7.85549 9.61593 7.8267C9.69642 7.79791 9.76887 7.75641 9.82895 7.70466L12.6736 5.42221L13.1373 5.04999L12.6736 4.67778L9.82983 2.39533C9.70612 2.29934 9.54038 2.24618 9.36831 2.24732C9.19624 2.24845 9.03161 2.30378 8.90988 2.4014C8.78815 2.49901 8.71905 2.63109 8.71748 2.76919C8.7159 2.9073 8.78197 3.04037 8.90145 3.13976L10.6252 4.52327L1.54358 4.52327C1.36953 4.52327 1.20261 4.57877 1.07954 4.67755C0.95647 4.77633 0.887329 4.9103 0.887329 5.04999C0.887329 5.18969 0.95647 5.32366 1.07954 5.42244C1.20261 5.52122 1.36953 5.57671 1.54358 5.57671L10.6252 5.57671L8.90145 6.96023Z" fill="#C6C6C6"/>
</svg>
