<svg width="16" height="16" viewBox="0 0 16 16" fill="none" xmlns="http://www.w3.org/2000/svg">
<path d="M5 5.99998H6V6.99998H5V5.99998ZM9 5.99998H10V6.99998H9V5.99998ZM12.6641 11C12.8464 11 13.0182 11.0338 13.1797 11.1015C13.3411 11.1692 13.4818 11.2656 13.6016 11.3906C13.7214 11.5156 13.8177 11.6588 13.8906 11.8203C13.9635 11.9817 14 12.1536 14 12.3359V16H13V12.3359C13 12.2422 12.9688 12.164 12.9062 12.1015C12.8438 12.039 12.763 12.0052 12.6641 12H2.33594C2.24219 12 2.16406 12.0312 2.10156 12.0937C2.03906 12.1562 2.00521 12.237 2 12.3359V16H1V12.3359C1 12.1536 1.03385 11.9817 1.10156 11.8203C1.16927 11.6588 1.26562 11.5182 1.39062 11.3984C1.51562 11.2786 1.65625 11.1823 1.8125 11.1094C1.96875 11.0364 2.14323 11 2.33594 11H5V9.99998H4.33594C4.15365 9.99998 3.98177 9.96612 3.82031 9.89842C3.65885 9.83071 3.51562 9.73435 3.39062 9.60935C3.26562 9.48435 3.17188 9.34373 3.10938 9.18748C3.04688 9.03123 3.01042 8.85675 3 8.66404V7.99998H2V5.99998H3V5.33592C3 5.15362 3.03385 4.98175 3.10156 4.82029C3.16927 4.65883 3.26562 4.51821 3.39062 4.39842C3.51562 4.27863 3.65625 4.18227 3.8125 4.10935C3.96875 4.03644 4.14323 3.99998 4.33594 3.99998H7V2.36717C6.84896 2.27863 6.72917 2.15623 6.64062 1.99998C6.55208 1.84373 6.50521 1.67706 6.5 1.49998C6.5 1.35935 6.52604 1.22915 6.57812 1.10935C6.63021 0.989563 6.70052 0.885396 6.78906 0.796855C6.8776 0.708313 6.98438 0.635396 7.10938 0.578105C7.23438 0.520813 7.36458 0.494771 7.5 0.49998C7.64062 0.49998 7.77083 0.526021 7.89062 0.578105C8.01042 0.630188 8.11458 0.7005 8.20312 0.789042C8.29167 0.877584 8.36458 0.984355 8.42188 1.10935C8.47917 1.23435 8.50521 1.36456 8.5 1.49998C8.5 1.67706 8.45573 1.84373 8.36719 1.99998C8.27865 2.15623 8.15625 2.27863 8 2.36717V3.99998H10.6641C10.8464 3.99998 11.0182 4.03383 11.1797 4.10154C11.3411 4.16925 11.4818 4.2656 11.6016 4.3906C11.7214 4.5156 11.8177 4.65883 11.8906 4.82029C11.9635 4.98175 12 5.15362 12 5.33592V5.99998H13V7.99998H12V8.66404C12 8.84633 11.9661 9.01821 11.8984 9.17967C11.8307 9.34112 11.7344 9.48435 11.6094 9.60935C11.4844 9.73435 11.3411 9.8281 11.1797 9.8906C11.0182 9.9531 10.8464 9.98956 10.6641 9.99998H10V11H12.6641ZM4 8.66404C4 8.75779 4.03125 8.83592 4.09375 8.89842C4.15625 8.96092 4.23698 8.99477 4.33594 8.99998H10.6641C10.7578 8.99998 10.8359 8.96873 10.8984 8.90623C10.9609 8.84373 10.9948 8.763 11 8.66404V5.33592C11 5.24217 10.9688 5.16404 10.9062 5.10154C10.8438 5.03904 10.763 5.00519 10.6641 4.99998H4.33594C4.24219 4.99998 4.16406 5.03123 4.10156 5.09373C4.03906 5.15623 4.00521 5.23696 4 5.33592V8.66404ZM6 11H9V9.99998H6V11Z" fill="white"/>
</svg>
