<svg width="41" height="10" viewBox="0 0 41 10" fill="none" xmlns="http://www.w3.org/2000/svg">
<path d="M6.34 1.01L3.69 8H2.89L0.24 1.01H1L3.29 7.24L5.6 1.01H6.34ZM8.1418 1.51C8.0018 1.51 7.8818 1.46 7.7818 1.36C7.6818 1.26 7.6318 1.13667 7.6318 0.99C7.6318 0.843333 7.6818 0.723333 7.7818 0.63C7.8818 0.53 8.0018 0.48 8.1418 0.48C8.2818 0.48 8.4018 0.53 8.5018 0.63C8.6018 0.723333 8.6518 0.843333 8.6518 0.99C8.6518 1.13667 8.6018 1.26 8.5018 1.36C8.4018 1.46 8.2818 1.51 8.1418 1.51ZM8.4918 2.54V8H7.7918V2.54H8.4918ZM15.417 4.99C15.417 5.23 15.4103 5.41333 15.397 5.54H10.867C10.887 5.95333 10.987 6.30667 11.167 6.6C11.347 6.89333 11.5836 7.11667 11.877 7.27C12.1703 7.41667 12.4903 7.49 12.837 7.49C13.2903 7.49 13.6703 7.38 13.977 7.16C14.2903 6.94 14.497 6.64333 14.597 6.27H15.337C15.2036 6.80333 14.917 7.24 14.477 7.58C14.0436 7.91333 13.497 8.08 12.837 8.08C12.3236 8.08 11.8636 7.96667 11.457 7.74C11.0503 7.50667 10.7303 7.18 10.497 6.76C10.2703 6.33333 10.157 5.83667 10.157 5.27C10.157 4.70333 10.2703 4.20667 10.497 3.78C10.7236 3.35333 11.0403 3.02667 11.447 2.8C11.8536 2.57333 12.317 2.46 12.837 2.46C13.357 2.46 13.8103 2.57333 14.197 2.8C14.5903 3.02667 14.8903 3.33333 15.097 3.72C15.3103 4.1 15.417 4.52333 15.417 4.99ZM14.707 4.97C14.7136 4.56333 14.6303 4.21667 14.457 3.93C14.2903 3.64333 14.0603 3.42667 13.767 3.28C13.4736 3.13333 13.1536 3.06 12.807 3.06C12.287 3.06 11.8436 3.22667 11.477 3.56C11.1103 3.89333 10.907 4.36333 10.867 4.97H14.707ZM24.2977 2.54L22.5877 8H21.8877L20.3777 3.42L18.8677 8H18.1577L16.4477 2.54H17.1577L18.5177 7.29L20.0477 2.54H20.7477L22.2577 7.3L23.6077 2.54H24.2977ZM28.4761 5.26C28.4761 4.7 28.5861 4.21 28.8061 3.79C29.0328 3.36333 29.3428 3.03667 29.7361 2.81C30.1361 2.57667 30.5861 2.46 31.0861 2.46C31.6061 2.46 32.0528 2.58 32.4261 2.82C32.8061 3.06 33.0794 3.36667 33.2461 3.74V2.54H33.9461V8H33.2461V6.79C33.0728 7.16333 32.7961 7.47333 32.4161 7.72C32.0428 7.96 31.5961 8.08 31.0761 8.08C30.5828 8.08 30.1361 7.96333 29.7361 7.73C29.3428 7.49667 29.0328 7.16667 28.8061 6.74C28.5861 6.31333 28.4761 5.82 28.4761 5.26ZM33.2461 5.27C33.2461 4.83 33.1561 4.44333 32.9761 4.11C32.7961 3.77667 32.5494 3.52 32.2361 3.34C31.9294 3.16 31.5894 3.07 31.2161 3.07C30.8294 3.07 30.4828 3.15667 30.1761 3.33C29.8694 3.50333 29.6261 3.75667 29.4461 4.09C29.2728 4.41667 29.1861 4.80667 29.1861 5.26C29.1861 5.70667 29.2728 6.1 29.4461 6.44C29.6261 6.77333 29.8694 7.03 30.1761 7.21C30.4828 7.38333 30.8294 7.47 31.2161 7.47C31.5894 7.47 31.9294 7.38 32.2361 7.2C32.5494 7.02 32.7961 6.76333 32.9761 6.43C33.1561 6.09667 33.2461 5.71 33.2461 5.27ZM36.6441 0.6V8H35.9441V0.6H36.6441ZM39.3293 0.6V8H38.6293V0.6H39.3293Z" fill="#FFCE31"/>
<path d="M0 9H40.1193V9.5H0V9Z" fill="#FFCE31"/>
</svg>
